<svg width="240" height="240" viewBox="0 0 240 240" fill="none" xmlns="http://www.w3.org/2000/svg">
  <rect width="240" height="240" rx="40" fill="#15803D"/>
  <circle cx="120" cy="120" r="74" fill="#DCFCE7"/>
  <path d="M120 76C123.314 76 126 78.6863 126 82V114H158C161.314 114 164 116.686 164 120C164 123.314 161.314 126 158 126H126V158C126 161.314 123.314 164 120 164C116.686 164 114 161.314 114 158V126H82C78.6863 126 76 123.314 76 120C76 116.686 78.6863 114 82 114H114V82C114 78.6863 116.686 76 120 76Z" fill="#15803D"/>
</svg>
